<?xml version="1.0" encoding="utf-8"?>
<!-- Generator: Adobe Illustrator 16.0.0, SVG Export Plug-In . SVG Version: 6.00 Build 0)  -->
<!DOCTYPE svg PUBLIC "-//W3C//DTD SVG 1.1//EN" "http://www.w3.org/Graphics/SVG/1.1/DTD/svg11.dtd">
<svg version="1.1" id="Capa_1" xmlns="http://www.w3.org/2000/svg" xmlns:xlink="http://www.w3.org/1999/xlink" x="0px" y="0px"
	 width="345px" height="131px" viewBox="0 0 345 131" enable-background="new 0 0 345 131" xml:space="preserve">
<g>
	<defs>
		<path id="SVGID_1_" d="M22.009,35.221c-5.337,6.455-8.553,13.961-9.725,21.678v13.43c1.584,10.447,6.873,20.388,15.663,27.655
			c8.165,6.756,18.024,10.109,27.857,10.225h1.048c12.651-0.143,25.157-5.65,33.855-16.164
			c15.689-18.972,13.029-47.071-5.938-62.759c-8.313-6.879-18.379-10.229-28.388-10.229C43.553,19.057,30.822,24.564,22.009,35.221"
			/>
	</defs>
	<clipPath id="SVGID_2_">
		<use xlink:href="#SVGID_1_"  overflow="visible"/>
	</clipPath>
	<path clip-path="url(#SVGID_2_)" fill="#FFFFFF" d="M66.336,20.266c-11.07,4.961-22.497,13.699-32.253,25.496
		c-1.507,1.818-2.932,3.666-4.277,5.527c0.769,1.131,1.679,2.146,2.742,3.02c2.89,2.391,6.553,3.525,10.652,3.525
		c6.913,0,15.057-3.223,22.752-9.057C70.788,37.6,71.116,26.82,66.336,20.266 M29.498,51.719
		c-6.947,9.711-11.724,19.891-14.146,29.42c0.211,0.504,0.432,0.992,0.665,1.484c2.03,0.799,4.285,1.191,6.68,1.191
		c5.996,0,12.911-2.424,19.66-6.871c-1.936-0.742-3.723-1.773-5.33-3.098C31.192,69.018,28.779,61.051,29.498,51.719"/>
	<g opacity="0.7" clip-path="url(#SVGID_2_)">
		<g>
			<defs>
				<rect id="SVGID_3_" x="11.066" y="13.113" width="102.839" height="112.257"/>
			</defs>
			<clipPath id="SVGID_4_">
				<use xlink:href="#SVGID_3_"  overflow="visible"/>
			</clipPath>
			<path clip-path="url(#SVGID_4_)" fill="#FFFFFF" d="M80.262,16.023c1.296,0.643,2.512,1.424,3.637,2.354
				c13.23,10.943,8.876,38.053-9.728,60.547c-18.604,22.495-44.411,31.849-57.646,20.903c-1.123-0.93-2.121-1.973-2.993-3.125
				c0.342,8.688,3.282,16.023,9.032,20.781c15.675,12.969,46.249,1.877,68.289-24.766c22.037-26.644,27.192-58.755,11.515-71.722
				C96.622,16.24,88.866,14.725,80.262,16.023"/>
		</g>
	</g>
	<g opacity="0.3" clip-path="url(#SVGID_2_)">
		<g>
			<defs>
				<rect id="SVGID_5_" x="27.032" y="25.938" width="66.984" height="54.949"/>
			</defs>
			<clipPath id="SVGID_6_">
				<use xlink:href="#SVGID_5_"  overflow="visible"/>
			</clipPath>
			<path clip-path="url(#SVGID_6_)" fill="#FFFFFF" d="M83.669,28.404c-1.877,3.33-4.143,6.637-6.778,9.826
				c-3.4,4.113-7.114,7.65-10.937,10.547c-2.241,5.182-5.454,10.455-9.565,15.434c-4.313,5.211-9.128,9.506-14.028,12.732
				c2.598,0.996,5.468,1.477,8.52,1.477c10.192,0,22.441-5.383,33.574-15.002c4.892-9.521,7.326-19.041,7.083-27.178
				c-1.961-2.51-4.215-4.844-6.771-6.959C84.403,28.984,84.041,28.691,83.669,28.404 M29.565,50.926
				c-0.024,0.266-0.048,0.531-0.067,0.793c0.102-0.141,0.202-0.285,0.306-0.428C29.723,51.172,29.642,51.047,29.565,50.926"/>
		</g>
	</g>
	<g opacity="0.6" clip-path="url(#SVGID_2_)">
		<g>
			<defs>
				<rect id="SVGID_7_" x="26.907" y="46.313" width="41.511" height="33.096"/>
			</defs>
			<clipPath id="SVGID_8_">
				<use xlink:href="#SVGID_7_"  overflow="visible"/>
			</clipPath>
			<path clip-path="url(#SVGID_8_)" fill="#FFFFFF" d="M65.952,48.777C58.257,54.613,50.117,57.83,43.2,57.83
				c-4.101,0-7.763-1.131-10.652-3.518c-1.063-0.881-1.976-1.893-2.747-3.02c-0.099,0.141-0.201,0.285-0.303,0.424
				c-0.721,9.334,1.694,17.301,7.529,22.129c1.607,1.324,3.395,2.355,5.333,3.098c4.9-3.227,9.716-7.521,14.028-12.734
				C60.505,59.229,63.713,53.959,65.952,48.777"/>
		</g>
	</g>
	<path clip-path="url(#SVGID_2_)" fill="#FFFFFF" d="M91.537,36.24c0.246,8.137-2.191,17.656-7.085,27.176
		c3.557-3.07,6.998-6.576,10.223-10.477c1.251-1.51,2.441-3.045,3.562-4.596C96.671,44.047,94.432,39.955,91.537,36.24"/>
	<g opacity="0.6" clip-path="url(#SVGID_2_)">
		<g>
			<defs>
				<rect id="SVGID_9_" x="9.313" y="16.773" width="45.44" height="52.725"/>
			</defs>
			<clipPath id="SVGID_10_">
				<use xlink:href="#SVGID_9_"  overflow="visible"/>
			</clipPath>
			<path clip-path="url(#SVGID_10_)" fill="#FFFFFF" d="M52.29,19.242c-11.401,1.045-22.407,6.459-30.281,15.979
				c-7.663,9.262-10.949,20.703-10.101,31.811c2.727-8.936,7.813-18.396,15.06-27.156C34.642,30.592,43.547,23.545,52.29,19.242"/>
		</g>
	</g>
</g>
<path fill="#FFFFFF" d="M286.955,91.079c-0.851,0.436-2.631,0.875-4.871,0.875c-5.2,0-9.091-3.289-9.091-9.364
	c0-5.803,3.914-9.689,9.634-9.689c2.273,0,3.751,0.496,4.378,0.822l-0.602,1.943c-0.872-0.443-2.158-0.766-3.689-0.766
	c-4.325,0-7.2,2.764-7.2,7.607c0,4.546,2.597,7.417,7.059,7.417c1.481,0,2.959-0.299,3.919-0.764L286.955,91.079z"/>
<polygon fill="#FFFFFF" points="292.351,73.203 292.351,80.918 301.275,80.918 301.275,73.203 303.686,73.203 303.686,91.649 
	301.275,91.649 301.275,82.998 292.351,82.998 292.351,91.649 289.948,91.649 289.948,73.203 "/>
<rect x="307.798" y="73.203" fill="#FFFFFF" width="2.407" height="18.452"/>
<polygon fill="#FFFFFF" points="314.343,73.203 316.75,73.203 316.75,89.655 324.635,89.655 324.635,91.649 314.343,91.649 "/>
<polygon fill="#FFFFFF" points="336.816,82.998 329.676,82.998 329.676,89.655 337.667,89.655 337.667,91.655 327.27,91.655 
	327.27,73.203 337.254,73.203 337.254,75.199 329.676,75.199 329.676,81.027 336.816,81.027 "/>
<rect x="118.21" y="19.445" fill="#FFFFFF" width="10.397" height="72.647"/>
<path fill="#FFFFFF" d="M168.236,28.701h-13.004v54.027h13.312c5.201,0,9.238-0.35,12.118-1.063c2.875-0.711,5.276-1.611,7.2-2.705
	c1.927-1.092,3.685-2.438,5.278-4.031c5.13-5.201,7.696-11.771,7.696-19.707c0-7.801-2.636-14.162-7.903-19.084
	c-1.944-1.838-4.17-3.344-6.683-4.523c-2.511-1.176-4.898-1.961-7.149-2.338C176.847,28.891,173.226,28.701,168.236,28.701
	 M144.834,91.989V19.447h24.49c9.882,0,17.701,1.479,23.451,4.447c5.755,2.967,10.332,7.32,13.728,13.078
	c3.399,5.752,5.1,12.027,5.1,18.824c0,4.854-0.939,9.496-2.809,13.932c-1.873,4.441-4.545,8.34-8.011,11.705
	c-3.534,3.461-7.643,6.085-12.323,7.853c-2.735,1.074-5.251,1.797-7.538,2.152c-2.293,0.369-6.655,0.551-13.104,0.551H144.834z"/>
<polygon fill="#FFFFFF" points="224.601,19.447 265.785,19.447 265.785,28.703 234.999,28.703 234.999,50.855 264.744,50.855 
	264.744,60.164 234.999,60.164 234.999,82.729 266.773,82.729 266.773,91.989 224.601,91.989 "/>
<path fill="#FFFFFF" d="M334.725,112.782c0.531,0.277,1.211,0.432,1.971,0.432c1.667,0,2.333-0.994,2.333-2.252
	c0-0.895-0.554-1.494-1.438-1.854l-0.428-0.168c-0.798-0.311-1.227-0.643-1.227-1.229c0-0.572,0.416-0.996,1.2-0.996
	c0.543,0,1.056,0.145,1.425,0.314l0.056-1.025c-0.413-0.156-0.938-0.258-1.539-0.258c-1.412,0-2.338,0.91-2.338,2.109
	c0,0.926,0.386,1.396,1.426,1.869l0.797,0.35c0.672,0.305,0.926,0.646,0.926,1.145c0,0.553-0.465,1.025-1.38,1.025
	c-0.6,0-1.165-0.213-1.71-0.541L334.725,112.782z M329.395,108.925c0.027-1.699,0.713-2.268,1.485-2.268
	c0.952,0,1.425,0.756,1.425,2.268H329.395z M333.502,109.837v-0.641c0-2.139-0.915-3.449-2.553-3.449
	c-1.81,0-2.809,1.455-2.809,3.732c0,2.279,0.999,3.734,2.924,3.734c0.728,0,1.468-0.154,2.037-0.432l-0.057-1.078
	c-0.412,0.299-1.07,0.6-1.667,0.6c-1.327,0-1.983-0.787-1.983-2.467H333.502z M325.165,113.116h1.196v-10.688h-1.196V113.116z
	 M321.931,110.462c0,0.998-0.658,1.842-1.697,1.842c-0.829,0-1.229-0.498-1.229-1.27c0-0.842,0.673-1.508,2.086-1.508
	c0.327,0,0.627,0,0.841,0.027V110.462z M318.577,107.472c0.414-0.457,1.129-0.756,1.868-0.756c0.501,0,0.972,0.125,1.213,0.455
	c0.227,0.314,0.272,0.629,0.272,1.168v0.33h-0.7c-2.495,0-3.42,1.039-3.42,2.449c0,1.4,0.896,2.096,2.095,2.096
	c1.112,0,1.71-0.525,2.04-1.084h0.026l0.072,0.986h1.079c-0.026-0.258-0.056-0.684-0.056-1.113v-3.791
	c0-1.025-0.313-1.469-0.626-1.779c-0.229-0.232-0.869-0.686-1.938-0.686c-0.713,0-1.453,0.209-2.051,0.6L318.577,107.472z
	 M314.776,104.278h1.31v-1.422h-1.31V104.278z M314.834,113.116h1.193v-7.268h-1.193V113.116z M313.221,106.03
	c-0.387-0.182-0.939-0.283-1.44-0.283c-2.022,0-3.245,1.455-3.245,3.807c0,2.051,1.049,3.66,3.216,3.66
	c0.53,0,1.171-0.154,1.527-0.314l-0.058-1.094c-0.413,0.213-0.896,0.385-1.47,0.385c-1.164,0-1.965-0.957-1.965-2.637
	c0-1.965,0.824-2.781,1.994-2.781c0.559,0,0.969,0.113,1.383,0.342L313.221,106.03z M305.77,110.462
	c0,0.998-0.656,1.842-1.697,1.842c-0.825,0-1.225-0.498-1.225-1.27c0-0.842,0.668-1.508,2.078-1.508c0.329,0,0.627,0,0.844,0.027
	V110.462z M302.418,107.472c0.413-0.457,1.127-0.756,1.867-0.756c0.498,0,0.97,0.125,1.213,0.455
	c0.229,0.314,0.271,0.629,0.271,1.168v0.33h-0.698c-2.494,0-3.419,1.039-3.419,2.449c0,1.4,0.894,2.096,2.093,2.096
	c1.109,0,1.711-0.525,2.038-1.084h0.028l0.069,0.986h1.083c-0.028-0.258-0.058-0.684-0.058-1.113v-3.791
	c0-1.025-0.313-1.469-0.626-1.779c-0.227-0.232-0.866-0.686-1.937-0.686c-0.713,0-1.454,0.209-2.051,0.6L302.418,107.472z
	 M294.755,116.188h1.193v-4.068h0.027c0.487,0.764,1.026,1.094,1.856,1.094c1.496,0,2.504-1.227,2.504-3.734
	c0-2.51-1.008-3.732-2.504-3.732c-1.057,0-1.599,0.6-1.912,1.166h-0.029l-0.042-1.064h-1.152c0.014,0.439,0.059,0.895,0.059,1.338
	V116.188z M295.948,109.479c0-1.824,0.5-2.764,1.596-2.764c1.098,0,1.599,0.939,1.599,2.764c0,1.826-0.501,2.766-1.599,2.766
	C296.448,112.245,295.948,111.306,295.948,109.479 M288.922,112.782c0.53,0.277,1.214,0.432,1.966,0.432
	c1.669,0,2.34-0.994,2.34-2.252c0-0.895-0.555-1.494-1.438-1.854l-0.43-0.168c-0.799-0.311-1.224-0.643-1.224-1.229
	c0-0.572,0.409-0.996,1.195-0.996c0.543,0,1.055,0.145,1.425,0.314l0.059-1.025c-0.414-0.156-0.94-0.258-1.542-0.258
	c-1.41,0-2.336,0.91-2.336,2.109c0,0.926,0.386,1.396,1.426,1.869l0.8,0.35c0.668,0.305,0.925,0.646,0.925,1.145
	c0,0.553-0.47,1.025-1.383,1.025c-0.6,0-1.17-0.213-1.708-0.541L288.922,112.782z M283.592,108.925
	c0.027-1.699,0.711-2.268,1.482-2.268c0.958,0,1.429,0.756,1.429,2.268H283.592z M287.694,109.837v-0.641
	c0-2.139-0.91-3.449-2.549-3.449c-1.811,0-2.807,1.455-2.807,3.732c0,2.279,0.996,3.734,2.921,3.734
	c0.727,0,1.469-0.154,2.038-0.432l-0.057-1.078c-0.413,0.299-1.065,0.6-1.666,0.6c-1.327,0-1.983-0.787-1.983-2.467H287.694z
	 M275.186,109.479c0,2.285,0.998,3.734,2.92,3.734c1.927,0,2.922-1.449,2.922-3.734c0-2.277-0.995-3.732-2.922-3.732
	C276.184,105.747,275.186,107.202,275.186,109.479 M276.438,109.479c0-1.824,0.527-2.764,1.667-2.764c1.142,0,1.67,0.939,1.67,2.764
	c0,1.826-0.528,2.766-1.67,2.766C276.966,112.245,276.438,111.306,276.438,109.479 M269.826,108.925
	c0.028-1.699,0.712-2.268,1.483-2.268c0.954,0,1.426,0.756,1.426,2.268H269.826z M273.929,109.837v-0.641
	c0-2.139-0.91-3.449-2.549-3.449c-1.812,0-2.807,1.455-2.807,3.732c0,2.279,0.995,3.734,2.921,3.734
	c0.728,0,1.468-0.154,2.035-0.432l-0.057-1.078c-0.41,0.299-1.065,0.6-1.664,0.6c-1.328,0-1.982-0.787-1.982-2.467H273.929z
	 M266.678,107.642h-2.864v1.082h1.667v3.135c-0.329,0.174-0.844,0.271-1.241,0.271c-2.167,0-3.194-1.697-3.194-4.258
	c0-2.424,1.485-3.723,3.107-3.723c0.727,0,1.569,0.227,2.322,0.609v-1.252c-0.68-0.326-1.479-0.438-2.331-0.438
	c-2.601,0-4.408,1.951-4.408,5.057c0,2.695,1.325,5.088,4.477,5.088c0.884,0,1.882-0.299,2.466-0.512V107.642z M250.276,112.782
	c0.525,0.277,1.206,0.432,1.967,0.432c1.665,0,2.335-0.994,2.335-2.252c0-0.895-0.557-1.494-1.439-1.854l-0.428-0.168
	c-0.797-0.311-1.229-0.643-1.229-1.229c0-0.572,0.416-0.996,1.199-0.996c0.543,0,1.055,0.145,1.424,0.314l0.058-1.025
	c-0.409-0.156-0.938-0.258-1.536-0.258c-1.41,0-2.342,0.91-2.342,2.109c0,0.926,0.386,1.396,1.427,1.869l0.799,0.35
	c0.67,0.305,0.927,0.646,0.927,1.145c0,0.553-0.47,1.025-1.384,1.025c-0.597,0-1.165-0.213-1.71-0.541L250.276,112.782z
	 M243.149,109.479c0,2.285,0.995,3.734,2.917,3.734c1.927,0,2.924-1.449,2.924-3.734c0-2.277-0.997-3.732-2.924-3.732
	C244.145,105.747,243.149,107.202,243.149,109.479 M244.401,109.479c0-1.824,0.529-2.764,1.665-2.764
	c1.144,0,1.673,0.939,1.673,2.764c0,1.826-0.529,2.766-1.673,2.766C244.931,112.245,244.401,111.306,244.401,109.479
	 M242.207,112.063c-0.229,0.094-0.44,0.182-0.744,0.182c-0.54,0-0.751-0.313-0.751-1.141v-4.293h1.495v-0.963h-1.495v-1.84
	l-1.2,0.355v1.484h-1.15v0.963h1.15v4.682c0,1.281,0.588,1.721,1.684,1.721c0.325,0,0.726-0.082,1.012-0.186V112.063z
	 M235.881,110.462c0,0.998-0.655,1.842-1.697,1.842c-0.828,0-1.228-0.498-1.228-1.27c0-0.842,0.671-1.508,2.082-1.508
	c0.327,0,0.629,0,0.843,0.027V110.462z M232.529,107.472c0.413-0.457,1.126-0.756,1.867-0.756c0.501,0,0.969,0.125,1.216,0.455
	c0.225,0.314,0.269,0.629,0.269,1.168v0.33h-0.698c-2.497,0-3.422,1.039-3.422,2.449c0,1.4,0.897,2.096,2.093,2.096
	c1.111,0,1.715-0.525,2.041-1.084h0.03l0.071,0.986h1.079c-0.029-0.258-0.058-0.684-0.058-1.113v-3.791
	c0-1.025-0.312-1.469-0.627-1.779c-0.227-0.232-0.866-0.686-1.936-0.686c-0.713,0-1.455,0.209-2.052,0.6L232.529,107.472z
	 M224.991,104.251h0.756c2.452,0,3.335,1.65,3.335,3.736c0,2.547-1.141,4.045-3.335,4.045h-0.756V104.251z M223.738,113.116h1.553
	c3.736,0,5.102-2.254,5.102-5.129c0-2.24-0.957-3.494-1.837-4.107c-0.57-0.396-1.329-0.709-2.651-0.709h-2.166V113.116z
	 M214.231,108.925c0.029-1.699,0.712-2.268,1.482-2.268c0.954,0,1.426,0.756,1.426,2.268H214.231z M218.334,109.837v-0.641
	c0-2.139-0.909-3.449-2.547-3.449c-1.814,0-2.808,1.455-2.808,3.732c0,2.279,0.993,3.734,2.92,3.734
	c0.728,0,1.468-0.154,2.036-0.432l-0.056-1.078c-0.411,0.299-1.066,0.6-1.667,0.6c-1.327,0-1.981-0.787-1.981-2.467H218.334z
	 M211.424,102.429h-1.195v4.412h-0.029c-0.485-0.768-1.024-1.094-1.854-1.094c-1.494,0-2.505,1.223-2.505,3.732
	c0,2.508,1.011,3.734,2.505,3.734c1.055,0,1.599-0.6,1.913-1.166h0.027l0.04,1.068h1.156c-0.015-0.445-0.058-0.902-0.058-1.344
	V102.429z M210.229,109.479c0,1.826-0.499,2.766-1.599,2.766c-1.097,0-1.595-0.939-1.595-2.766c0-1.824,0.498-2.764,1.595-2.764
	C209.729,106.716,210.229,107.655,210.229,109.479 M199.368,110.462c0,0.998-0.653,1.842-1.695,1.842
	c-0.829,0-1.228-0.498-1.228-1.27c0-0.842,0.669-1.508,2.083-1.508c0.327,0,0.626,0,0.84,0.027V110.462z M196.021,107.472
	c0.409-0.457,1.123-0.756,1.863-0.756c0.502,0,0.972,0.125,1.215,0.455c0.226,0.314,0.27,0.629,0.27,1.168v0.33h-0.697
	c-2.496,0-3.42,1.039-3.42,2.449c0,1.4,0.896,2.096,2.095,2.096c1.109,0,1.71-0.525,2.037-1.084h0.029l0.069,0.986h1.082
	c-0.029-0.258-0.056-0.684-0.056-1.113v-3.791c0-1.025-0.313-1.469-0.626-1.779c-0.229-0.232-0.87-0.686-1.938-0.686
	c-0.714,0-1.455,0.209-2.053,0.6L196.021,107.472z M191.104,113.116h1.193v-3.85c0-1.582,0.656-2.381,1.579-2.381
	c0.159,0,0.318,0.012,0.457,0.041v-1.18c-1.067,0-1.679,0.355-2.063,1.234h-0.03l-0.041-1.133h-1.153
	c0.014,0.51,0.059,1.041,0.059,1.564V113.116z M189.078,105.849h-1.197v4.371c0,1.311-0.597,1.971-1.538,1.971
	c-0.774,0-1.197-0.502-1.197-1.656v-4.686h-1.196v5.039c0,1.598,0.852,2.326,2.122,2.326c0.842,0,1.453-0.355,1.839-1.182h0.029
	l0.043,1.084h1.151c-0.014-0.516-0.056-1.045-0.056-1.57V105.849z M182.647,112.063c-0.226,0.094-0.439,0.182-0.739,0.182
	c-0.544,0-0.756-0.313-0.756-1.141v-4.293h1.495v-0.963h-1.495v-1.84l-1.193,0.355v1.484h-1.153v0.963h1.153v4.682
	c0,1.281,0.583,1.721,1.682,1.721c0.326,0,0.727-0.082,1.007-0.186V112.063z M177.945,106.03c-0.386-0.182-0.939-0.283-1.435-0.283
	c-2.025,0-3.248,1.455-3.248,3.807c0,2.051,1.052,3.66,3.216,3.66c0.527,0,1.168-0.154,1.524-0.314l-0.058-1.094
	c-0.409,0.213-0.895,0.385-1.467,0.385c-1.167,0-1.967-0.957-1.967-2.637c0-1.965,0.828-2.781,1.999-2.781
	c0.554,0,0.968,0.113,1.38,0.342L177.945,106.03z M171.592,105.849h-1.196v4.371c0,1.311-0.598,1.971-1.541,1.971
	c-0.768,0-1.197-0.502-1.197-1.656v-4.686h-1.195v5.039c0,1.598,0.854,2.326,2.12,2.326c0.843,0,1.455-0.355,1.84-1.182h0.029
	l0.045,1.084h1.153c-0.016-0.516-0.058-1.045-0.058-1.57V105.849z M161.96,113.116h1.193v-3.85c0-1.582,0.656-2.381,1.583-2.381
	c0.156,0,0.313,0.012,0.455,0.041v-1.18c-1.068,0-1.68,0.355-2.065,1.234h-0.029l-0.043-1.133h-1.15
	c0.013,0.51,0.057,1.041,0.057,1.564V113.116z M160.66,112.063c-0.228,0.094-0.44,0.182-0.739,0.182c-0.542,0-0.76-0.313-0.76-1.141
	v-4.293h1.499v-0.963h-1.499v-1.84l-1.193,0.355v1.484h-1.154v0.963h1.154v4.682c0,1.281,0.582,1.721,1.682,1.721
	c0.327,0,0.726-0.082,1.011-0.186V112.063z M151.512,112.782c0.526,0.277,1.212,0.432,1.968,0.432c1.666,0,2.335-0.994,2.335-2.252
	c0-0.895-0.554-1.494-1.438-1.854l-0.428-0.168c-0.797-0.311-1.225-0.643-1.225-1.229c0-0.572,0.413-0.996,1.199-0.996
	c0.541,0,1.055,0.145,1.425,0.314l0.056-1.025c-0.415-0.156-0.939-0.258-1.538-0.258c-1.412,0-2.337,0.91-2.337,2.109
	c0,0.926,0.384,1.396,1.424,1.869l0.798,0.35c0.669,0.305,0.927,0.646,0.927,1.145c0,0.553-0.47,1.025-1.386,1.025
	c-0.598,0-1.166-0.213-1.708-0.541L151.512,112.782z M146.183,108.925c0.029-1.699,0.709-2.268,1.483-2.268
	c0.953,0,1.426,0.756,1.426,2.268H146.183z M150.285,109.837v-0.641c0-2.139-0.91-3.449-2.549-3.449
	c-1.812,0-2.809,1.455-2.809,3.732c0,2.279,0.997,3.734,2.921,3.734c0.726,0,1.469-0.154,2.037-0.432l-0.056-1.078
	c-0.411,0.299-1.066,0.6-1.669,0.6c-1.324,0-1.979-0.787-1.979-2.467H150.285z M142.163,110.462c0,0.998-0.655,1.842-1.697,1.842
	c-0.824,0-1.225-0.498-1.225-1.27c0-0.842,0.671-1.508,2.082-1.508c0.327,0,0.628,0,0.84,0.027V110.462z M138.812,107.472
	c0.417-0.457,1.13-0.756,1.87-0.756c0.496,0,0.969,0.125,1.209,0.455c0.231,0.314,0.272,0.629,0.272,1.168v0.33h-0.695
	c-2.497,0-3.423,1.039-3.423,2.449c0,1.4,0.898,2.096,2.092,2.096c1.112,0,1.714-0.525,2.043-1.084h0.029l0.067,0.986h1.084
	c-0.029-0.258-0.059-0.684-0.059-1.113v-3.791c0-1.025-0.313-1.469-0.626-1.779c-0.226-0.232-0.867-0.686-1.936-0.686
	c-0.713,0-1.458,0.209-2.052,0.6L138.812,107.472z M133.897,113.116h1.197v-3.85c0-1.582,0.654-2.381,1.583-2.381
	c0.156,0,0.313,0.012,0.455,0.041v-1.18c-1.07,0-1.681,0.355-2.066,1.234h-0.029l-0.042-1.133h-1.154
	c0.016,0.51,0.057,1.041,0.057,1.564V113.116z M130.164,113.116h1.196v-6.305h1.312v-0.963h-1.312v-1.529
	c0-0.723,0.199-1.094,0.868-1.094c0.285,0,0.543,0.055,0.685,0.166v-1.02c-0.27-0.074-0.614-0.115-0.94-0.115
	c-1.271,0-1.809,0.779-1.809,1.963v1.629h-1.153v0.963h1.153V113.116z M122.498,113.116h1.197v-4.379
	c0-1.309,0.597-1.965,1.535-1.965c0.771,0,1.2,0.498,1.2,1.652v4.691h1.193v-5.047c0-1.596-0.852-2.322-2.121-2.322
	c-0.841,0-1.454,0.355-1.839,1.18h-0.027l-0.043-1.078h-1.15c0.014,0.51,0.055,1.041,0.055,1.564V113.116z M118.99,113.116h1.254
	v-9.945h-1.254V113.116z"/>
</svg>
