<?xml version="1.0" encoding="utf-8"?>
<!-- Generator: Adobe Illustrator 16.0.0, SVG Export Plug-In . SVG Version: 6.00 Build 0)  -->
<!DOCTYPE svg PUBLIC "-//W3C//DTD SVG 1.1//EN" "http://www.w3.org/Graphics/SVG/1.1/DTD/svg11.dtd">
<svg version="1.1" id="Capa_1" xmlns="http://www.w3.org/2000/svg" xmlns:xlink="http://www.w3.org/1999/xlink" x="0px" y="0px"
	 width="544px" height="182.392px" viewBox="0 322.108 544 182.392" enable-background="new 0 322.108 544 182.392"
	 xml:space="preserve">
<polygon id="Fill-3" fill="#FFFFFF" points="268.765,477.892 272.249,477.892 272.249,391.788 268.765,391.788 "/>
<path id="Fill-4" fill="#FFFFFF" d="M348.398,459.477c-6.974,3.444-14.62,5.313-22.396,5.475c-18.415,0-27.375-11.944-27.375-30.36
	c0-18.415,8.96-29.365,28.37-29.365c7.208-0.361,14.348,1.555,20.406,5.476l-5.973,10.451c-4.387-2.55-9.359-3.921-14.434-3.981
	c-9.954,0-13.936,6.471-13.936,17.42c0,12.94,4.479,19.411,13.936,19.411c2.895,0.104,5.777-0.405,8.461-1.493v-8.461h-6.968
	l-0.995-9.954h20.903V459.477z"/>
<path id="Fill-5" fill="#FFFFFF" d="M381.248,443.052c0-9.456-2.488-11.944-6.471-11.944c-3.981,0-6.47,1.99-6.47,11.944
	c0,9.955,2.488,11.945,6.47,11.945C378.76,454.997,381.248,452.509,381.248,443.052 M394.687,443.052
	c0,14.435-6.969,21.899-19.909,21.899s-19.908-7.465-19.908-21.899c0-11.944,6.968-21.401,19.908-21.401
	S394.687,431.107,394.687,443.052"/>
<path id="Fill-6" fill="#FFFFFF" d="M418.079,451.016c1.382,2.299,3.795,3.783,6.47,3.981c3.484,0,6.968-2.986,6.968-11.945
	c0-8.958-2.986-11.944-6.968-11.944c-2.395-0.024-4.709,0.865-6.47,2.488V451.016z M411.608,463.956h-6.968v-58.73h13.438v13.937
	l-0.996,7.466c2.453-3.277,6.361-5.139,10.452-4.978c8.959,0,16.922,6.471,16.922,21.401c0,14.932-8.958,21.899-18.415,21.899
	c-4.824,0.615-9.542-1.744-11.945-5.973L411.608,463.956z"/>
<polygon id="Fill-7" fill="#FFFFFF" points="451.426,464.951 464.366,464.951 464.366,451.514 451.426,451.514 "/>
<path id="Fill-8" fill="#FFFFFF" d="M504.183,434.094c-3.261-1.581-6.828-2.431-10.451-2.489c-4.978,0-8.462,2.986-8.462,11.447
	c0,8.462,2.986,11.448,8.462,11.448c3.985-0.16,7.891-1.18,11.447-2.986l2.488,9.456c-4.711,2.098-9.778,3.28-14.932,3.484
	c-13.936,0-21.401-7.466-21.401-21.899c0-13.438,7.466-21.402,21.401-21.402c5.205-0.26,10.379,0.947,14.932,3.484L504.183,434.094z
	"/>
<path id="Fill-9" fill="#FFFFFF" d="M528.073,405.226v45.79c-0.115,1.779,1.21,3.325,2.986,3.484l3.483,0.497v9.457
	c-2.285,0.554-4.618,0.887-6.968,0.995c-8.461,0-12.94-4.479-12.94-11.447v-48.278h13.438V405.226z"/>
<polygon id="Fill-10" fill="#EA3C46" points="272.249,351.971 544,351.971 544,322.108 272.249,322.108 "/>
<polygon id="Fill-11" fill="#0F69B3" points="0,351.971 272.249,351.971 272.249,322.108 0,322.108 "/>
<path fill="#FFFFFF" d="M236.911,431.604v-11.447l-0.995-3.483c0.615-0.48,0.98-1.212,0.995-1.991c0-1.374-1.114-2.488-2.488-2.488
	c-1.375,0-2.489,1.114-2.489,2.488c0.015,0.779,0.381,1.511,0.996,1.991l-0.996,2.986h-13.438l-0.996-2.986
	c0.615-0.48,0.98-1.212,0.996-1.991c0-1.374-1.114-2.488-2.489-2.488s-2.489,1.114-2.489,2.488c0.015,0.779,0.381,1.511,0.996,1.991
	l-0.996,2.986h-13.936l-0.498-2.986c0.615-0.48,0.98-1.212,0.996-1.991c0-1.374-1.114-2.488-2.489-2.488
	c-1.374,0-2.488,1.114-2.488,2.488c0.015,0.779,0.38,1.511,0.995,1.991l-0.995,2.986h-13.936l-0.996-2.986
	c0.615-0.48,0.98-1.212,0.996-1.991c0-1.374-1.114-2.488-2.489-2.488c-1.374,0-2.488,1.114-2.488,2.488
	c0.015,0.779,0.38,1.511,0.995,1.991l-0.995,2.986h-13.438v-10.452l-0.995-2.986c0.615-0.48,0.98-1.212,0.995-1.991
	c0-1.374-1.114-2.488-2.488-2.488c-1.375,0-2.489,1.114-2.489,2.488c0.015,0.779,0.381,1.511,0.996,1.991l-0.996,2.986h-19.411
	l-0.996-2.986c0.615-0.48,0.98-1.212,0.996-1.991c0-1.374-1.114-2.488-2.489-2.488s-2.488,1.114-2.488,2.488
	c0.015,0.779,0.38,1.511,0.995,1.991v2.986h-19.908l-0.498-2.489c0.524-0.549,0.871-1.242,0.996-1.99
	c0-1.375-1.114-2.489-2.489-2.489c-1.374,0-2.488,1.114-2.488,2.489c0.125,0.748,0.471,1.441,0.995,1.99l-0.995,2.986H90.583
	l-0.995-3.483c0.615-0.48,0.98-1.212,0.995-1.991c0-1.374-1.114-2.488-2.488-2.488s-2.489,1.114-2.489,2.488
	c0.015,0.779,0.381,1.511,0.996,1.991l-0.996,2.986v10.452H72.168l-0.996-2.986c0.524-0.549,0.871-1.243,0.996-1.991
	c0-1.374-1.114-2.488-2.489-2.488s-2.488,1.114-2.488,2.488c0.015,0.779,0.38,1.511,0.995,1.991l-0.995,2.986H53.255l-0.996-2.986
	c0.615-0.48,0.98-1.212,0.996-1.991c0-1.374-1.114-2.488-2.489-2.488s-2.488,1.114-2.488,2.488c0.015,0.779,0.38,1.511,0.995,1.991
	l-0.995,2.986H35.337l-0.995-2.986c0.615-0.48,0.98-1.212,0.995-1.991c0-1.374-1.114-2.488-2.488-2.488s-2.489,1.114-2.489,2.488
	c0.015,0.779,0.381,1.511,0.996,1.991l-0.996,2.986H16.922l-0.996-2.986c0.615-0.48,0.98-1.212,0.996-1.991
	c0.091-1.224-0.777-2.31-1.991-2.488h-0.498c-1.289-0.085-2.403,0.891-2.488,2.18c0,0.004,0,0.007,0,0.01v0.299
	c0.015,0.779,0.38,1.511,0.995,1.991l-0.995,3.483v11.447H9.954v5.973h1.991v20.904H9.954v5.973h106.511v-22.896
	c0.002-4.673,3.792-8.459,8.465-8.456c4.669,0.002,8.455,3.787,8.457,8.456v22.896h105.515v-5.973h-1.991v-20.904h1.991v-5.973
	H236.911z M27.872,458.481h-7.466v-9.954h7.466V458.481z M27.872,432.601v9.954h-7.466v-10.452h7.466V432.601z M46.785,458.481
	h-7.466v-9.954h7.466V458.481z M46.785,432.601v9.954h-7.466v-10.452h7.466V432.601z M65.698,458.481h-7.466v-9.954h7.466V458.481z
	 M65.698,432.601v9.954h-7.466v-10.452h7.466V432.601z M84.611,458.481h-7.963v-9.954h7.963V458.481z M84.611,442.057
	L84.611,442.057l-0.498,0.498h-7.465v-9.954h0.498v-0.498h7.466V442.057z M103.524,458.481h-7.466v-9.954h7.466V458.481z
	 M103.524,432.601v9.954h-7.466v-10.452h7.466V432.601z M103.524,426.628h-7.466v-9.954h7.466V426.628z M128.908,426.628h-8.959
	v-9.954h8.959V426.628z M152.3,458.481h-7.466v-9.954h7.466V458.481z M152.3,432.601v9.954h-7.466v-10.452h7.466V432.601z
	 M152.3,426.628h-7.466v-9.954h7.466V426.628z M171.711,458.481h-7.466v-9.954h7.466V458.481z M171.711,432.601v9.954h-7.466
	v-10.452h7.466V432.601z M190.624,458.481h-7.466v-9.954h7.466V458.481z M190.624,432.601v9.954h-7.466v-10.452h7.466V432.601z
	 M209.04,458.481h-7.466v-9.954h7.466V458.481z M209.04,432.601v9.954h-7.466v-10.452h7.466V432.601z M227.953,458.481h-7.466
	v-9.954h7.466V458.481z M227.953,432.601v9.954h-7.466v-10.452h7.466V432.601z"/>
</svg>
